<?xml version="1.0" standalone="no"?><svg xmlns:xlink="http://www.w3.org/1999/xlink" xmlns="http://www.w3.org/2000/svg" viewBox="0 0 1000 666.6666666666667" preserveAspectRatio="xMaxYMax slice"><g transform="scale(1.1999040076793857)"><rect x="0" y="0" width="833.4000000000001" height="555.6" fill="#ffffff"/><rect x="0" y="0" width="69.45" height="69.45" fill="#ffffff"/><rect x="0" y="0" width="34.73" height="34.73" fill="#626c56"/><polygon points="34.73,0 34.73,34.73 0,34.73" fill="#fffffe"/><rect x="34.73" y="0" width="34.73" height="34.73" fill="#dbb289"/><polygon points="34.73,0 69.46,34.73 34.73,34.73" fill="#efebe7"/><rect x="0" y="34.73" width="34.73" height="34.73" fill="#dee0dc"/><polygon points="0,34.73 34.73,34.73 34.73,69.46" fill="#eae5e0"/><rect x="34.73" y="34.73" width="34.73" height="34.73" fill="#eff2d7"/><polygon points="34.73,34.73 69.46,34.73 34.73,69.46" fill="#f9f8f6"/><rect x="69.45" y="0" width="69.45" height="69.45" fill="#ffffff"/><rect x="69.45" y="0" width="34.73" height="34.73" fill="#f7f9ec"/><circle cx="86.815" cy="17.365" r="17.365" fill="#f8f7f5"/><rect x="104.18" y="0" width="34.73" height="34.73" fill="#fdfefb"/><rect x="104.18" y="0" width="34.73" height="34.73" fill="#f1eeeb"/><rect x="69.45" y="34.73" width="34.73" height="34.73" fill="#fffefe"/><circle cx="86.815" cy="52.095" r="17.365" fill="#545f47"/><rect x="104.18" y="34.73" width="34.73" height="34.73" fill="#f8f9ee"/><rect x="104.18" y="34.73" width="34.73" height="34.73" fill="#e8cdb4"/><rect x="138.9" y="0" width="69.45" height="69.45" fill="#f3efec"/><path d="M 138.9 0 A 69.45 69.45 0 0 1 208.35000000000002 69.45 L 138.9 69.45L138.9 0" fill="#c5c8c0"/><rect x="208.35000000000002" y="0" width="69.45" height="69.45" fill="#ffffff"/><rect x="208.35" y="0" width="34.73" height="34.73" fill="#e9ebe8"/><polygon points="243.07999999999998,0 243.07999999999998,34.73 208.35,34.73" fill="#f2f4df"/><rect x="243.08" y="0" width="34.73" height="34.73" fill="#e1c09f"/><polygon points="243.08,0 277.81,34.73 243.08,34.73" fill="#deb792"/><rect x="208.35" y="34.73" width="34.73" height="34.73" fill="#f8f1e9"/><polygon points="208.35,34.73 243.07999999999998,34.73 208.35,69.46" fill="#424f34"/><rect x="243.08" y="34.73" width="34.73" height="34.73" fill="#fefcee"/><polygon points="243.08,34.73 277.81,34.73 277.81,69.46" fill="#fefae0"/><rect x="277.8" y="0" width="69.45" height="69.45" fill="#7a8270"/><path d="M 277.8 69.45 A 69.45 69.45 0 0 1  347.25 0 L 347.25 69.45L277.8 69.45" fill="#ffffff"/><rect x="347.25" y="0" width="69.45" height="69.45" fill="#f3f5e2"/><polygon points="347.25,0 416.7,0 416.7,69.45" fill="#f9faf0"/><rect x="416.7" y="0" width="69.45" height="69.45" fill="#fdfbf8"/><rect x="416.7" y="0" width="69.45" height="69.45" fill="#5d6851"/><rect x="486.15" y="0" width="69.45" height="69.45" fill="#f7f8eb"/><rect x="486.15" y="0" width="69.45" height="69.45" fill="#c2c6be"/><rect x="555.6" y="0" width="69.45" height="69.45" fill="#fefbe8"/><polygon points="555.6,0 625.0500000000001,0 625.0500000000001,69.45" fill="#ddb690"/><rect x="625.0500000000001" y="0" width="69.45" height="69.45" fill="#ffffff"/><rect x="625.05" y="0" width="34.73" height="34.73" fill="#fafbf4"/><path d="M 625.05 0 A 34.73 34.73 0 0 0 659.78 34.73 L 659.78 0L625.05 0" fill="#fefbe8"/><rect x="659.78" y="0" width="34.73" height="34.73" fill="#e5ded8"/><path d="M 659.78 34.73 A 34.73 34.73 0 0 0 694.51 0 L 659.78 0L659.78 34.73" fill="#ddb690"/><rect x="625.05" y="34.73" width="34.73" height="34.73" fill="#b4b9af"/><path d="M 625.05 69.46 A 34.73 34.73 0 0 1  659.78 34.73 L 659.78 69.46L625.05 69.46" fill="#838b7a"/><rect x="659.78" y="34.73" width="34.73" height="34.73" fill="#3e4a2f"/><path d="M 659.78 34.73 A 34.73 34.73 0 0 1 694.51 69.46 L 659.78 69.46L659.78 34.73" fill="#eff2d7"/><rect x="694.5" y="0" width="69.45" height="69.45" fill="#ffffff"/><rect x="694.5" y="0" width="34.73" height="34.73" fill="#e0d8d0"/><path d="M 694.5 0 A 34.73 34.73 0 0 1 729.23 34.73 L 694.5 34.73L694.5 0" fill="#818977"/><rect x="729.23" y="0" width="34.73" height="34.73" fill="#fefbe8"/><path d="M 729.23 34.73 A 34.73 34.73 0 0 1  763.96 0 L 763.96 34.73L729.23 34.73" fill="#d8cec5"/><rect x="694.5" y="34.73" width="34.73" height="34.73" fill="#fffdf3"/><path d="M 694.5 69.46 A 34.73 34.73 0 0 0 729.23 34.73 L 694.5 34.73L694.5 69.46" fill="#d7cdc4"/><rect x="729.23" y="34.73" width="34.73" height="34.73" fill="#69735e"/><path d="M 729.23 34.73 A 34.73 34.73 0 0 0 763.96 69.46 L 763.96 34.73L729.23 34.73" fill="#eef0ed"/><rect x="763.95" y="0" width="69.45" height="69.45" fill="#ffffff"/><rect x="763.95" y="0" width="34.73" height="34.73" fill="#fefae1"/><polygon points="798.6800000000001,0 798.6800000000001,34.73 763.95,34.73" fill="#e0e2dd"/><rect x="798.68" y="0" width="34.73" height="34.73" fill="#2b391b"/><polygon points="798.68,0 833.41,0 798.68,34.73" fill="#fefbe4"/><rect x="763.95" y="34.73" width="34.73" height="34.73" fill="#dcb58e"/><polygon points="763.95,34.73 798.6800000000001,34.73 798.6800000000001,69.46" fill="#f0f3db"/><rect x="798.68" y="34.73" width="34.73" height="34.73" fill="#fefced"/><polygon points="798.68,34.73 833.41,69.46 798.68,69.46" fill="#eef1d5"/><rect x="0" y="69.45" width="69.45" height="69.45" fill="#fefcee"/><polygon points="0,69.45 69.45,69.45 69.45,138.9" fill="#deb792"/><rect x="69.45" y="69.45" width="69.45" height="69.45" fill="#f2f4df"/><rect x="69.45" y="69.45" width="69.45" height="69.45" fill="#fffffc"/><rect x="138.9" y="69.45" width="69.45" height="69.45" fill="#fdfdfc"/><path d="M 138.9 138.9 A 69.45 69.45 0 0 0 208.35000000000002 69.45 L 138.9 69.45L138.9 138.9" fill="#ded6ce"/><rect x="208.35000000000002" y="69.45" width="69.45" height="69.45" fill="#ffffff"/><rect x="208.35" y="69.45" width="34.73" height="34.73" fill="#9fa598"/><polygon points="243.07999999999998,69.45 243.07999999999998,104.18 208.35,104.18" fill="#fffffd"/><rect x="243.08" y="69.45" width="34.73" height="34.73" fill="#57624b"/><polygon points="243.08,69.45 277.81,69.45 243.08,104.18" fill="#ebefcf"/><rect x="208.35" y="104.18" width="34.73" height="34.73" fill="#ddd5cd"/><polygon points="208.35,104.18 243.07999999999998,104.18 243.07999999999998,138.91" fill="#ffffff"/><rect x="243.08" y="104.18" width="34.73" height="34.73" fill="#747d6a"/><polygon points="243.08,104.18 277.81,138.91 243.08,138.91" fill="#f2efec"/><rect x="277.8" y="69.45" width="69.45" height="69.45" fill="#ece7e2"/><polygon points="347.25,69.45 347.25,138.9 277.8,138.9" fill="#424e34"/><rect x="347.25" y="69.45" width="69.45" height="69.45" fill="#f2f5e0"/><polygon points="347.25,69.45 416.7,69.45 416.7,138.9" fill="#b2b7ac"/><rect x="416.7" y="69.45" width="69.45" height="69.45" fill="#e5c7a9"/><path d="M 416.7 69.45 A 69.45 69.45 0 0 1 486.15 138.9 L 416.7 138.9L416.7 69.45" fill="#fefae0"/><rect x="486.15000000000003" y="69.45" width="69.45" height="69.45" fill="#ffffff"/><rect x="486.15" y="69.45" width="34.73" height="34.73" fill="#d9af85"/><polygon points="520.88,69.45 520.88,104.18 486.15,104.18" fill="#e0bc99"/><rect x="520.88" y="69.45" width="34.73" height="34.73" fill="#fffdf1"/><polygon points="520.88,69.45 555.61,104.18 520.88,104.18" fill="#fafbf2"/><rect x="486.15" y="104.18" width="34.73" height="34.73" fill="#fefcee"/><polygon points="486.15,104.18 520.88,104.18 486.15,138.91" fill="#f5f2ef"/><rect x="520.88" y="104.18" width="34.73" height="34.73" fill="#c1c5bd"/><polygon points="520.88,104.18 555.61,104.18 555.61,138.91" fill="#ebe6e1"/><rect x="555.6" y="69.45" width="69.45" height="69.45" fill="#e3c4a5"/><rect x="555.6" y="69.45" width="69.45" height="69.45" fill="#f5f3f0"/><rect x="625.0500000000001" y="69.45" width="69.45" height="69.45" fill="#ffffff"/><rect x="625.05" y="69.45" width="34.73" height="34.73" fill="#f0f3db"/><path d="M 625.05 104.18 A 34.73 34.73 0 0 0 659.78 69.45 L 625.05 69.45L625.05 104.18" fill="#e3dcd6"/><rect x="659.78" y="69.45" width="34.73" height="34.73" fill="#fffffe"/><path d="M 659.78 69.45 A 34.73 34.73 0 0 0 694.51 104.18 L 694.51 69.45L659.78 69.45" fill="#fcfbfb"/><rect x="625.05" y="104.18" width="34.73" height="34.73" fill="#979d8f"/><path d="M 625.05 104.18 A 34.73 34.73 0 0 1 659.78 138.91 L 625.05 138.91L625.05 104.18" fill="#fffffd"/><rect x="659.78" y="104.18" width="34.73" height="34.73" fill="#eef1d6"/><path d="M 659.78 138.91 A 34.73 34.73 0 0 1  694.51 104.18 L 694.51 138.91L659.78 138.91" fill="#f4f1ee"/><rect x="694.5" y="69.45" width="69.45" height="69.45" fill="#f8faef"/><path d="M 694.5 138.9 A 69.45 69.45 0 0 1  763.95 69.45 L 694.5 138.9 A 69.45 69.45 0 0 0 763.95 69.45" fill="#505b42"/><rect x="763.95" y="69.45" width="69.45" height="69.45" fill="#ffffff"/><rect x="763.95" y="69.45" width="34.73" height="34.73" fill="#ebd3bc"/><polygon points="798.6800000000001,69.45 798.6800000000001,104.18 763.95,104.18" fill="#b5baaf"/><rect x="798.68" y="69.45" width="34.73" height="34.73" fill="#dbb189"/><polygon points="798.68,69.45 833.41,104.18 798.68,104.18" fill="#e9e4df"/><rect x="763.95" y="104.18" width="34.73" height="34.73" fill="#f3f0ed"/><polygon points="763.95,104.18 798.6800000000001,104.18 763.95,138.91" fill="#344125"/><rect x="798.68" y="104.18" width="34.73" height="34.73" fill="#d8ab80"/><polygon points="798.68,104.18 833.41,104.18 833.41,138.91" fill="#f8f8f7"/><rect x="0" y="138.9" width="69.45" height="69.45" fill="#ffffff"/><rect x="0" y="138.9" width="34.73" height="34.73" fill="#f0f3da"/><polygon points="34.73,138.9 34.73,173.63 0,173.63" fill="#ebefcf"/><rect x="34.73" y="138.9" width="34.73" height="34.73" fill="#fffefc"/><polygon points="34.73,138.9 69.46,173.63 34.73,173.63" fill="#4c573e"/><rect x="0" y="173.63" width="34.73" height="34.73" fill="#fffef9"/><polygon points="0,173.63 34.73,173.63 34.73,208.35999999999999" fill="#fffef8"/><rect x="34.73" y="173.63" width="34.73" height="34.73" fill="#e9edc9"/><polygon points="34.73,173.63 69.46,173.63 34.73,208.35999999999999" fill="#f0ece8"/><rect x="69.45" y="138.9" width="69.45" height="69.45" fill="#b9bdb4"/><path d="M 69.45 138.9 A 69.45 69.45 0 0 0 138.9 208.35000000000002 L 138.9 138.9L69.45 138.9" fill="#fefae2"/><rect x="138.9" y="138.9" width="69.45" height="69.45" fill="#ffffff"/><rect x="138.9" y="138.9" width="34.73" height="34.73" fill="#f5f7e6"/><path d="M 138.9 138.9 A 34.73 34.73 0 0 0 173.63 173.63 L 173.63 138.9L138.9 138.9" fill="#ecd6c0"/><rect x="173.63" y="138.9" width="34.73" height="34.73" fill="#fefae2"/><path d="M 173.63 173.63 A 34.73 34.73 0 0 0 208.35999999999999 138.9 L 173.63 138.9L173.63 173.63" fill="#f9f8f6"/><rect x="138.9" y="173.63" width="34.73" height="34.73" fill="#ecefd0"/><path d="M 138.9 208.35999999999999 A 34.73 34.73 0 0 1  173.63 173.63 L 173.63 208.35999999999999L138.9 208.35999999999999" fill="#e5e6e3"/><rect x="173.63" y="173.63" width="34.73" height="34.73" fill="#8d9585"/><path d="M 173.63 173.63 A 34.73 34.73 0 0 1 208.35999999999999 208.35999999999999 L 173.63 208.35999999999999L173.63 173.63" fill="#f1e1d1"/><rect x="208.35" y="138.9" width="69.45" height="69.45" fill="#fcfbfa"/><polygon points="208.35,138.9 277.8,138.9 208.35,208.35000000000002" fill="#f4f2ef"/><rect x="277.8" y="138.9" width="69.45" height="69.45" fill="#fffef9"/><rect x="277.8" y="138.9" width="69.45" height="69.45" fill="#66705b"/><rect x="347.25" y="138.9" width="69.45" height="69.45" fill="#fefcec"/><rect x="347.25" y="138.9" width="69.45" height="69.45" fill="#f3f5e2"/><rect x="416.7" y="138.9" width="69.45" height="69.45" fill="#fffef6"/><polygon points="416.7,138.9 486.15,138.9 486.15,208.35000000000002" fill="#fffefa"/><rect x="486.15000000000003" y="138.9" width="69.45" height="69.45" fill="#ffffff"/><rect x="486.15" y="138.9" width="34.73" height="34.73" fill="#eef1d6"/><polygon points="520.88,138.9 520.88,173.63 486.15,173.63" fill="#cacdc6"/><rect x="520.88" y="138.9" width="34.73" height="34.73" fill="#d9ae83"/><polygon points="520.88,138.9 555.61,173.63 520.88,173.63" fill="#2f3d1f"/><rect x="486.15" y="173.63" width="34.73" height="34.73" fill="#daaf85"/><polygon points="486.15,173.63 520.88,173.63 520.88,208.35999999999999" fill="#b4b8ae"/><rect x="520.88" y="173.63" width="34.73" height="34.73" fill="#e0d9d1"/><polygon points="520.88,173.63 555.61,173.63 520.88,208.35999999999999" fill="#fefae2"/><rect x="555.6" y="138.9" width="69.45" height="69.45" fill="#ffffff"/><rect x="555.6" y="138.9" width="34.73" height="34.73" fill="#f8f6f4"/><polygon points="590.33,138.9 590.33,173.63 555.6,173.63" fill="#ecf0d1"/><rect x="590.33" y="138.9" width="34.73" height="34.73" fill="#fefbe5"/><polygon points="590.33,138.9 625.0600000000001,138.9 590.33,173.63" fill="#fefcef"/><rect x="555.6" y="173.63" width="34.73" height="34.73" fill="#2b391b"/><polygon points="555.6,173.63 590.33,173.63 590.33,208.35999999999999" fill="#9ca294"/><rect x="590.33" y="173.63" width="34.73" height="34.73" fill="#92998a"/><polygon points="590.33,173.63 625.0600000000001,208.35999999999999 590.33,208.35999999999999" fill="#f4f2ef"/><rect x="625.05" y="138.9" width="69.45" height="69.45" fill="#e2c1a0"/><polygon points="625.05,138.9 694.5,138.9 694.5,208.35000000000002" fill="#fefceb"/><rect x="694.5" y="138.9" width="69.45" height="69.45" fill="#7d8674"/><path d="M 694.5 138.9 A 69.45 69.45 0 0 0 763.95 208.35000000000002 L 763.95 138.9L694.5 138.9" fill="#dcb58f"/><rect x="763.95" y="138.9" width="69.45" height="69.45" fill="#ffffff"/><rect x="763.95" y="138.9" width="34.73" height="34.73" fill="#bbc0b6"/><path d="M 763.95 173.63 A 34.73 34.73 0 0 0 798.6800000000001 138.9 L 763.95 138.9L763.95 173.63" fill="#eef1d6"/><rect x="798.68" y="138.9" width="34.73" height="34.73" fill="#d6a77a"/><path d="M 798.68 138.9 A 34.73 34.73 0 0 0 833.41 173.63 L 833.41 138.9L798.68 138.9" fill="#455137"/><rect x="763.95" y="173.63" width="34.73" height="34.73" fill="#e8eae7"/><path d="M 763.95 173.63 A 34.73 34.73 0 0 1 798.6800000000001 208.35999999999999 L 763.95 208.35999999999999L763.95 173.63" fill="#ebefce"/><rect x="798.68" y="173.63" width="34.73" height="34.73" fill="#fefbe8"/><path d="M 798.68 208.35999999999999 A 34.73 34.73 0 0 1  833.41 173.63 L 833.41 208.35999999999999L798.68 208.35999999999999" fill="#293719"/><rect x="0" y="208.35000000000002" width="69.45" height="69.45" fill="#ffffff"/><rect x="0" y="208.35" width="34.73" height="34.73" fill="#f6f8e9"/><polygon points="34.73,208.35 34.73,243.07999999999998 0,243.07999999999998" fill="#faf4ef"/><rect x="34.73" y="208.35" width="34.73" height="34.73" fill="#ddb791"/><polygon points="34.73,208.35 69.46,208.35 34.73,243.07999999999998" fill="#fefcef"/><rect x="0" y="243.08" width="34.73" height="34.73" fill="#fbfbf4"/><polygon points="0,243.08 34.73,243.08 34.73,277.81" fill="#f3e6d9"/><rect x="34.73" y="243.08" width="34.73" height="34.73" fill="#fbfaf9"/><polygon points="34.73,243.08 69.46,277.81 34.73,277.81" fill="#435035"/><rect x="69.45" y="208.35000000000002" width="69.45" height="69.45" fill="#ffffff"/><rect x="69.45" y="208.35" width="34.73" height="34.73" fill="#fffdf3"/><path d="M 69.45 208.35 A 34.73 34.73 0 0 1 104.18 243.07999999999998 L 69.45 243.07999999999998L69.45 208.35" fill="#fefefd"/><rect x="104.18" y="208.35" width="34.73" height="34.73" fill="#fffef6"/><path d="M 104.18 243.07999999999998 A 34.73 34.73 0 0 1  138.91 208.35 L 138.91 243.07999999999998L104.18 243.07999999999998" fill="#faf9f8"/><rect x="69.45" y="243.08" width="34.73" height="34.73" fill="#e0e2de"/><path d="M 69.45 277.81 A 34.73 34.73 0 0 0 104.18 243.08 L 69.45 243.08L69.45 277.81" fill="#f5f7e8"/><rect x="104.18" y="243.08" width="34.73" height="34.73" fill="#f5f3f0"/><path d="M 104.18 243.08 A 34.73 34.73 0 0 0 138.91 277.81 L 138.91 243.08L104.18 243.08" fill="#fcfcf7"/><rect x="138.9" y="208.35000000000002" width="69.45" height="69.45" fill="#ffffff"/><rect x="138.9" y="208.35" width="34.73" height="34.73" fill="#f9f3ec"/><polygon points="173.63,208.35 173.63,243.07999999999998 138.9,243.07999999999998" fill="#d3d6d0"/><rect x="173.63" y="208.35" width="34.73" height="34.73" fill="#fefcea"/><polygon points="173.63,208.35 208.35999999999999,208.35 173.63,243.07999999999998" fill="#fffefa"/><rect x="138.9" y="243.08" width="34.73" height="34.73" fill="#f1eeeb"/><polygon points="138.9,243.08 173.63,243.08 173.63,277.81" fill="#c6cac2"/><rect x="173.63" y="243.08" width="34.73" height="34.73" fill="#fdfdfa"/><polygon points="173.63,243.08 208.35999999999999,277.81 173.63,277.81" fill="#d4d7d1"/><rect x="208.35" y="208.35" width="69.45" height="69.45" fill="#c2c6be"/><path d="M 208.35 208.35 A 69.45 69.45 0 0 1 277.8 277.8 L 208.35 277.8L208.35 208.35" fill="#f0f3da"/><rect x="277.8" y="208.35000000000002" width="69.45" height="69.45" fill="#ffffff"/><rect x="277.8" y="208.35" width="34.73" height="34.73" fill="#f5f3f1"/><path d="M 277.8 208.35 A 34.73 34.73 0 0 0 312.53000000000003 243.07999999999998 L 312.53000000000003 208.35L277.8 208.35" fill="#e6dfd9"/><rect x="312.53" y="208.35" width="34.73" height="34.73" fill="#dab087"/><path d="M 312.53 243.07999999999998 A 34.73 34.73 0 0 0 347.26 208.35 L 312.53 208.35L312.53 243.07999999999998" fill="#bdc1b8"/><rect x="277.8" y="243.08" width="34.73" height="34.73" fill="#f9f9f8"/><path d="M 277.8 277.81 A 34.73 34.73 0 0 1  312.53000000000003 243.08 L 312.53000000000003 277.81L277.8 277.81" fill="#303d21"/><rect x="312.53" y="243.08" width="34.73" height="34.73" fill="#fdfdf9"/><path d="M 312.53 243.08 A 34.73 34.73 0 0 1 347.26 277.81 L 312.53 277.81L312.53 243.08" fill="#9aa193"/><rect x="347.25" y="208.35000000000002" width="69.45" height="69.45" fill="#ffffff"/><rect x="347.25" y="208.35" width="34.73" height="34.73" fill="#e3c4a5"/><path d="M 347.25 243.07999999999998 A 34.73 34.73 0 0 1  381.98 208.35 L 381.98 243.07999999999998L347.25 243.07999999999998" fill="#e6c9ad"/><rect x="381.98" y="208.35" width="34.73" height="34.73" fill="#bfc3ba"/><path d="M 381.98 208.35 A 34.73 34.73 0 0 1 416.71000000000004 243.07999999999998 L 381.98 243.07999999999998L381.98 208.35" fill="#fffdf3"/><rect x="347.25" y="243.08" width="34.73" height="34.73" fill="#e2dbd4"/><path d="M 347.25 243.08 A 34.73 34.73 0 0 0 381.98 277.81 L 381.98 243.08L347.25 243.08" fill="#7c8472"/><rect x="381.98" y="243.08" width="34.73" height="34.73" fill="#f6f8e9"/><path d="M 381.98 277.81 A 34.73 34.73 0 0 0 416.71000000000004 243.08 L 381.98 243.08L381.98 277.81" fill="#f6f4f2"/><rect x="416.70000000000005" y="208.35000000000002" width="69.45" height="69.45" fill="#ffffff"/><rect x="416.7" y="208.35" width="34.73" height="34.73" fill="#e1be9d"/><polygon points="451.43,208.35 451.43,243.07999999999998 416.7,243.07999999999998" fill="#e2dbd5"/><rect x="451.43" y="208.35" width="34.73" height="34.73" fill="#4c583f"/><polygon points="451.43,208.35 486.16,243.07999999999998 451.43,243.07999999999998" fill="#e7cbaf"/><rect x="416.7" y="243.08" width="34.73" height="34.73" fill="#f2e2d4"/><polygon points="416.7,243.08 451.43,243.08 451.43,277.81" fill="#a6aca0"/><rect x="451.43" y="243.08" width="34.73" height="34.73" fill="#fcfdf8"/><polygon points="451.43,243.08 486.16,243.08 451.43,277.81" fill="#ffffff"/><rect x="486.15" y="208.35" width="69.45" height="69.45" fill="#e3c2a2"/><rect x="486.15" y="208.35" width="69.45" height="69.45" fill="#efebe7"/><rect x="555.6" y="208.35000000000002" width="69.45" height="69.45" fill="#ffffff"/><rect x="555.6" y="208.35" width="34.73" height="34.73" fill="#f4f1ee"/><polygon points="590.33,208.35 590.33,243.07999999999998 555.6,243.07999999999998" fill="#fefbe9"/><rect x="590.33" y="208.35" width="34.73" height="34.73" fill="#fdfcfc"/><polygon points="590.33,208.35 625.0600000000001,243.07999999999998 590.33,243.07999999999998" fill="#2e3b1e"/><rect x="555.6" y="243.08" width="34.73" height="34.73" fill="#fefbe5"/><polygon points="555.6,243.08 590.33,243.08 555.6,277.81" fill="#f4f6e4"/><rect x="590.33" y="243.08" width="34.73" height="34.73" fill="#f9faf1"/><polygon points="590.33,243.08 625.0600000000001,243.08 625.0600000000001,277.81" fill="#e9e4de"/><rect x="625.05" y="208.35" width="69.45" height="69.45" fill="#e0d8d1"/><rect x="625.05" y="208.35" width="69.45" height="69.45" fill="#f3f0ed"/><rect x="694.5" y="208.35" width="69.45" height="69.45" fill="#2f3c1f"/><rect x="694.5" y="208.35" width="69.45" height="69.45" fill="#fffdf5"/><rect x="763.95" y="208.35" width="69.45" height="69.45" fill="#f1f4dd"/><path d="M 763.95 277.8 A 69.45 69.45 0 0 1  833.4000000000001 208.35 L 763.95 277.8 A 69.45 69.45 0 0 0 833.4000000000001 208.35" fill="#ebeecd"/><rect x="0" y="277.8" width="69.45" height="69.45" fill="#ffffff"/><rect x="0" y="277.8" width="34.73" height="34.73" fill="#fbfcf6"/><circle cx="17.365" cy="295.165" r="17.365" fill="#fffffe"/><rect x="34.73" y="277.8" width="34.73" height="34.73" fill="#fdfefb"/><rect x="34.73" y="277.8" width="34.73" height="34.73" fill="#e5dfd9"/><rect x="0" y="312.53" width="34.73" height="34.73" fill="#303d20"/><circle cx="17.365" cy="329.895" r="17.365" fill="#d5d7d2"/><rect x="34.73" y="312.53" width="34.73" height="34.73" fill="#fafbf2"/><rect x="34.73" y="312.53" width="34.73" height="34.73" fill="#ddb791"/><rect x="69.45" y="277.8" width="69.45" height="69.45" fill="#deb994"/><path d="M 69.45 277.8 A 69.45 69.45 0 0 0 138.9 347.25 L 138.9 277.8L69.45 277.8" fill="#fffdf4"/><rect x="138.9" y="277.8" width="69.45" height="69.45" fill="#4e5941"/><rect x="138.9" y="277.8" width="69.45" height="69.45" fill="#fffefb"/><rect x="208.35000000000002" y="277.8" width="69.45" height="69.45" fill="#ffffff"/><rect x="208.35" y="277.8" width="34.73" height="34.73" fill="#7e8674"/><path d="M 208.35 277.8 A 34.73 34.73 0 0 0 243.07999999999998 312.53000000000003 L 243.07999999999998 277.8L208.35 277.8" fill="#f1f2f0"/><rect x="243.08" y="277.8" width="34.73" height="34.73" fill="#fefefd"/><path d="M 243.08 312.53000000000003 A 34.73 34.73 0 0 0 277.81 277.8 L 243.08 277.8L243.08 312.53000000000003" fill="#e4c5a7"/><rect x="208.35" y="312.53" width="34.73" height="34.73" fill="#68725d"/><path d="M 208.35 347.26 A 34.73 34.73 0 0 1  243.07999999999998 312.53 L 243.07999999999998 347.26L208.35 347.26" fill="#fefffe"/><rect x="243.08" y="312.53" width="34.73" height="34.73" fill="#efebe7"/><path d="M 243.08 312.53 A 34.73 34.73 0 0 1 277.81 347.26 L 243.08 347.26L243.08 312.53" fill="#fffefb"/><rect x="277.8" y="277.8" width="69.45" height="69.45" fill="#f0decd"/><polygon points="277.8,277.8 347.25,277.8 277.8,347.25" fill="#f0f3da"/><rect x="347.25" y="277.8" width="69.45" height="69.45" fill="#fefcec"/><rect x="347.25" y="277.8" width="69.45" height="69.45" fill="#dbb28a"/><rect x="416.7" y="277.8" width="69.45" height="69.45" fill="#fffefa"/><path d="M 416.7 277.8 A 69.45 69.45 0 0 1 486.15 347.25 L 416.7 347.25L416.7 277.8" fill="#dfba96"/><rect x="486.15000000000003" y="277.8" width="69.45" height="69.45" fill="#ffffff"/><rect x="486.15" y="277.8" width="34.73" height="34.73" fill="#e1d9d2"/><polygon points="520.88,277.8 520.88,312.53000000000003 486.15,312.53000000000003" fill="#ede9e5"/><rect x="520.88" y="277.8" width="34.73" height="34.73" fill="#fefcea"/><polygon points="520.88,277.8 555.61,312.53000000000003 520.88,312.53000000000003" fill="#f6f4f1"/><rect x="486.15" y="312.53" width="34.73" height="34.73" fill="#e6e0da"/><polygon points="486.15,312.53 520.88,312.53 486.15,347.26" fill="#3b472c"/><rect x="520.88" y="312.53" width="34.73" height="34.73" fill="#ffffff"/><polygon points="520.88,312.53 555.61,312.53 555.61,347.26" fill="#dfbb97"/><rect x="555.6" y="277.8" width="69.45" height="69.45" fill="#f2f4de"/><polygon points="625.0500000000001,277.8 625.0500000000001,347.25 555.6,347.25" fill="#eef1d5"/><rect x="625.0500000000001" y="277.8" width="69.45" height="69.45" fill="#ffffff"/><rect x="625.05" y="277.8" width="34.73" height="34.73" fill="#f0dfce"/><polygon points="659.78,277.8 659.78,312.53000000000003 625.05,312.53000000000003" fill="#eceeeb"/><rect x="659.78" y="277.8" width="34.73" height="34.73" fill="#fcfcfb"/><polygon points="659.78,277.8 694.51,312.53000000000003 659.78,312.53000000000003" fill="#dab087"/><rect x="625.05" y="312.53" width="34.73" height="34.73" fill="#efddcc"/><polygon points="625.05,312.53 659.78,312.53 625.05,347.26" fill="#f9faf1"/><rect x="659.78" y="312.53" width="34.73" height="34.73" fill="#fdfdfa"/><polygon points="659.78,312.53 694.51,312.53 694.51,347.26" fill="#d8ac81"/><rect x="694.5" y="277.8" width="69.45" height="69.45" fill="#ffffff"/><rect x="694.5" y="277.8" width="34.73" height="34.73" fill="#a2a89b"/><path d="M 694.5 312.53000000000003 A 34.73 34.73 0 0 0 729.23 277.8 L 694.5 277.8L694.5 312.53000000000003" fill="#f2efeb"/><rect x="729.23" y="277.8" width="34.73" height="34.73" fill="#fffffc"/><path d="M 729.23 277.8 A 34.73 34.73 0 0 0 763.96 312.53000000000003 L 763.96 277.8L729.23 277.8" fill="#f4e6da"/><rect x="694.5" y="312.53" width="34.73" height="34.73" fill="#b6bab0"/><path d="M 694.5 312.53 A 34.73 34.73 0 0 1 729.23 347.26 L 694.5 347.26L694.5 312.53" fill="#fefefc"/><rect x="729.23" y="312.53" width="34.73" height="34.73" fill="#d5a577"/><path d="M 729.23 347.26 A 34.73 34.73 0 0 1  763.96 312.53 L 763.96 347.26L729.23 347.26" fill="#f8f1e9"/><rect x="763.95" y="277.8" width="69.45" height="69.45" fill="#e4ddd6"/><polygon points="763.95,277.8 833.4000000000001,277.8 763.95,347.25" fill="#fefbe6"/><rect x="0" y="347.25" width="69.45" height="69.45" fill="#ffffff"/><rect x="0" y="347.25" width="34.73" height="34.73" fill="#f4f2ef"/><polygon points="34.73,347.25 34.73,381.98 0,381.98" fill="#acb1a6"/><rect x="34.73" y="347.25" width="34.73" height="34.73" fill="#f5eadf"/><polygon points="34.73,347.25 69.46,347.25 34.73,381.98" fill="#e2dbd4"/><rect x="0" y="381.98" width="34.73" height="34.73" fill="#dfba97"/><polygon points="0,381.98 34.73,381.98 34.73,416.71000000000004" fill="#fefefe"/><rect x="34.73" y="381.98" width="34.73" height="34.73" fill="#d5d8d2"/><polygon points="34.73,381.98 69.46,416.71000000000004 34.73,416.71000000000004" fill="#455137"/><rect x="69.45" y="347.25" width="69.45" height="69.45" fill="#ffffff"/><rect x="69.45" y="347.25" width="34.73" height="34.73" fill="#c1c5bc"/><circle cx="86.815" cy="364.615" r="17.365" fill="#f9f8f7"/><rect x="104.18" y="347.25" width="34.73" height="34.73" fill="#4b573e"/><rect x="104.18" y="347.25" width="34.73" height="34.73" fill="#f4e7db"/><rect x="69.45" y="381.98" width="34.73" height="34.73" fill="#deb995"/><circle cx="86.815" cy="399.345" r="17.365" fill="#4a553c"/><rect x="104.18" y="381.98" width="34.73" height="34.73" fill="#f3e6d9"/><rect x="104.18" y="381.98" width="34.73" height="34.73" fill="#fefcef"/><rect x="138.9" y="347.25" width="69.45" height="69.45" fill="#ffffff"/><rect x="138.9" y="347.25" width="34.73" height="34.73" fill="#ffffff"/><path d="M 138.9 381.98 A 34.73 34.73 0 0 0 173.63 347.25 L 138.9 347.25L138.9 381.98" fill="#e2dbd4"/><rect x="173.63" y="347.25" width="34.73" height="34.73" fill="#ddb690"/><path d="M 173.63 347.25 A 34.73 34.73 0 0 0 208.35999999999999 381.98 L 208.35999999999999 347.25L173.63 347.25" fill="#fffef7"/><rect x="138.9" y="381.98" width="34.73" height="34.73" fill="#eff2d9"/><path d="M 138.9 381.98 A 34.73 34.73 0 0 1 173.63 416.71000000000004 L 138.9 416.71000000000004L138.9 381.98" fill="#fffef6"/><rect x="173.63" y="381.98" width="34.73" height="34.73" fill="#69735e"/><path d="M 173.63 416.71000000000004 A 34.73 34.73 0 0 1  208.35999999999999 381.98 L 208.35999999999999 416.71000000000004L173.63 416.71000000000004" fill="#dad1c8"/><rect x="208.35000000000002" y="347.25" width="69.45" height="69.45" fill="#ffffff"/><rect x="208.35" y="347.25" width="34.73" height="34.73" fill="#fffdf0"/><polygon points="243.07999999999998,347.25 243.07999999999998,381.98 208.35,381.98" fill="#ebd5bf"/><rect x="243.08" y="347.25" width="34.73" height="34.73" fill="#f9f7f6"/><polygon points="243.08,347.25 277.81,347.25 243.08,381.98" fill="#fafbf4"/><rect x="208.35" y="381.98" width="34.73" height="34.73" fill="#eaeecc"/><polygon points="208.35,381.98 243.07999999999998,381.98 243.07999999999998,416.71000000000004" fill="#f9faf1"/><rect x="243.08" y="381.98" width="34.73" height="34.73" fill="#848c7b"/><polygon points="243.08,381.98 277.81,416.71000000000004 243.08,416.71000000000004" fill="#eaeecc"/><rect x="277.8" y="347.25" width="69.45" height="69.45" fill="#fdfdf9"/><rect x="277.8" y="347.25" width="69.45" height="69.45" fill="#f0f3db"/><rect x="347.25" y="347.25" width="69.45" height="69.45" fill="#ffffff"/><rect x="347.25" y="347.25" width="34.73" height="34.73" fill="#d9ae83"/><path d="M 347.25 381.98 A 34.73 34.73 0 0 1  381.98 347.25 L 381.98 381.98L347.25 381.98" fill="#fbfcf5"/><rect x="381.98" y="347.25" width="34.73" height="34.73" fill="#e8e2dc"/><path d="M 381.98 347.25 A 34.73 34.73 0 0 1 416.71000000000004 381.98 L 381.98 381.98L381.98 347.25" fill="#939a8b"/><rect x="347.25" y="381.98" width="34.73" height="34.73" fill="#fefae2"/><path d="M 347.25 381.98 A 34.73 34.73 0 0 0 381.98 416.71000000000004 L 381.98 381.98L347.25 381.98" fill="#ede9e5"/><rect x="381.98" y="381.98" width="34.73" height="34.73" fill="#dbb28a"/><path d="M 381.98 416.71000000000004 A 34.73 34.73 0 0 0 416.71000000000004 381.98 L 381.98 381.98L381.98 416.71000000000004" fill="#515c44"/><rect x="416.70000000000005" y="347.25" width="69.45" height="69.45" fill="#ffffff"/><rect x="416.7" y="347.25" width="34.73" height="34.73" fill="#dbd2ca"/><path d="M 416.7 381.98 A 34.73 34.73 0 0 1  451.43 347.25 L 451.43 381.98L416.7 381.98" fill="#d8cec5"/><rect x="451.43" y="347.25" width="34.73" height="34.73" fill="#6b7460"/><path d="M 451.43 347.25 A 34.73 34.73 0 0 1 486.16 381.98 L 451.43 381.98L451.43 347.25" fill="#eedbc8"/><rect x="416.7" y="381.98" width="34.73" height="34.73" fill="#acb1a5"/><path d="M 416.7 381.98 A 34.73 34.73 0 0 0 451.43 416.71000000000004 L 451.43 381.98L416.7 381.98" fill="#354226"/><rect x="451.43" y="381.98" width="34.73" height="34.73" fill="#e4e6e2"/><path d="M 451.43 416.71000000000004 A 34.73 34.73 0 0 0 486.16 381.98 L 451.43 381.98L451.43 416.71000000000004" fill="#e1be9c"/><rect x="486.15000000000003" y="347.25" width="69.45" height="69.45" fill="#ffffff"/><rect x="486.15" y="347.25" width="34.73" height="34.73" fill="#9ca294"/><polygon points="520.88,347.25 520.88,381.98 486.15,381.98" fill="#d5a678"/><rect x="520.88" y="347.25" width="34.73" height="34.73" fill="#818a78"/><polygon points="520.88,347.25 555.61,381.98 520.88,381.98" fill="#fefbe8"/><rect x="486.15" y="381.98" width="34.73" height="34.73" fill="#636e58"/><polygon points="486.15,381.98 520.88,381.98 486.15,416.71000000000004" fill="#fefbe4"/><rect x="520.88" y="381.98" width="34.73" height="34.73" fill="#dbb28a"/><polygon points="520.88,381.98 555.61,381.98 555.61,416.71000000000004" fill="#faf5f0"/><rect x="555.6" y="347.25" width="69.45" height="69.45" fill="#efece8"/><rect x="555.6" y="347.25" width="69.45" height="69.45" fill="#c6c9c2"/><rect x="625.05" y="347.25" width="69.45" height="69.45" fill="#fefcec"/><polygon points="625.05,347.25 694.5,347.25 694.5,416.7" fill="#f0dfce"/><rect x="694.5" y="347.25" width="69.45" height="69.45" fill="#f3f0ed"/><polygon points="694.5,347.25 763.95,416.7 694.5,416.7" fill="#fffef7"/><rect x="763.95" y="347.25" width="69.45" height="69.45" fill="#ffffff"/><rect x="763.95" y="347.25" width="34.73" height="34.73" fill="#faf4ee"/><polygon points="798.6800000000001,347.25 798.6800000000001,381.98 763.95,381.98" fill="#d9cfc6"/><rect x="798.68" y="347.25" width="34.73" height="34.73" fill="#e5dfd9"/><polygon points="798.68,347.25 833.41,381.98 798.68,381.98" fill="#f5f7e7"/><rect x="763.95" y="381.98" width="34.73" height="34.73" fill="#fffdf3"/><polygon points="763.95,381.98 798.6800000000001,381.98 763.95,416.71000000000004" fill="#fefceb"/><rect x="798.68" y="381.98" width="34.73" height="34.73" fill="#faf9f8"/><polygon points="798.68,381.98 833.41,381.98 833.41,416.71000000000004" fill="#edf0d3"/><rect x="0" y="416.70000000000005" width="69.45" height="69.45" fill="#ffffff"/><rect x="0" y="416.7" width="34.73" height="34.73" fill="#ecefcf"/><path d="M 0 416.7 A 34.73 34.73 0 0 1 34.73 451.43 L 0 451.43L0 416.7" fill="#f0dfce"/><rect x="34.73" y="416.7" width="34.73" height="34.73" fill="#dfd7cf"/><path d="M 34.73 451.43 A 34.73 34.73 0 0 1  69.46 416.7 L 69.46 451.43L34.73 451.43" fill="#5f6a53"/><rect x="0" y="451.43" width="34.73" height="34.73" fill="#fffdf4"/><path d="M 0 486.16 A 34.73 34.73 0 0 0 34.73 451.43 L 0 451.43L0 486.16" fill="#f6f4f2"/><rect x="34.73" y="451.43" width="34.73" height="34.73" fill="#747d6a"/><path d="M 34.73 451.43 A 34.73 34.73 0 0 0 69.46 486.16 L 69.46 451.43L34.73 451.43" fill="#efebe7"/><rect x="69.45" y="416.7" width="69.45" height="69.45" fill="#fffffe"/><path d="M 69.45 486.15 A 69.45 69.45 0 0 1  138.9 416.7 L 138.9 486.15L69.45 486.15" fill="#f5f2f0"/><rect x="138.9" y="416.70000000000005" width="69.45" height="69.45" fill="#ffffff"/><rect x="138.9" y="416.7" width="34.73" height="34.73" fill="#fefbe9"/><polygon points="173.63,416.7 173.63,451.43 138.9,451.43" fill="#ede8e4"/><rect x="173.63" y="416.7" width="34.73" height="34.73" fill="#eef1d5"/><polygon points="173.63,416.7 208.35999999999999,451.43 173.63,451.43" fill="#fffef9"/><rect x="138.9" y="451.43" width="34.73" height="34.73" fill="#fffdf3"/><polygon points="138.9,451.43 173.63,451.43 138.9,486.16" fill="#fffef7"/><rect x="173.63" y="451.43" width="34.73" height="34.73" fill="#fffefc"/><polygon points="173.63,451.43 208.35999999999999,451.43 208.35999999999999,486.16" fill="#fffdf4"/><rect x="208.35000000000002" y="416.70000000000005" width="69.45" height="69.45" fill="#ffffff"/><rect x="208.35" y="416.7" width="34.73" height="34.73" fill="#fffefb"/><path d="M 208.35 416.7 A 34.73 34.73 0 0 1 243.07999999999998 451.43 L 208.35 451.43L208.35 416.7" fill="#f5eae0"/><rect x="243.08" y="416.7" width="34.73" height="34.73" fill="#eff2d8"/><path d="M 243.08 451.43 A 34.73 34.73 0 0 1  277.81 416.7 L 277.81 451.43L243.08 451.43" fill="#f8f7f5"/><rect x="208.35" y="451.43" width="34.73" height="34.73" fill="#78816e"/><path d="M 208.35 486.16 A 34.73 34.73 0 0 0 243.07999999999998 451.43 L 208.35 451.43L208.35 486.16" fill="#7f8876"/><rect x="243.08" y="451.43" width="34.73" height="34.73" fill="#ffffff"/><path d="M 243.08 451.43 A 34.73 34.73 0 0 0 277.81 486.16 L 277.81 451.43L243.08 451.43" fill="#878f7e"/><rect x="277.8" y="416.70000000000005" width="69.45" height="69.45" fill="#ffffff"/><rect x="277.8" y="416.7" width="34.73" height="34.73" fill="#eef1d6"/><circle cx="295.165" cy="434.065" r="17.365" fill="#b4b9af"/><rect x="312.53" y="416.7" width="34.73" height="34.73" fill="#e2c1a1"/><rect x="312.53" y="416.7" width="34.73" height="34.73" fill="#e8e3dd"/><rect x="277.8" y="451.43" width="34.73" height="34.73" fill="#e7e2dc"/><circle cx="295.165" cy="468.795" r="17.365" fill="#f1f4dd"/><rect x="312.53" y="451.43" width="34.73" height="34.73" fill="#f3f5e2"/><rect x="312.53" y="451.43" width="34.73" height="34.73" fill="#919889"/><rect x="347.25" y="416.70000000000005" width="69.45" height="69.45" fill="#ffffff"/><rect x="347.25" y="416.7" width="34.73" height="34.73" fill="#ddb690"/><path d="M 347.25 451.43 A 34.73 34.73 0 0 1  381.98 416.7 L 381.98 451.43L347.25 451.43" fill="#afb4a9"/><rect x="381.98" y="416.7" width="34.73" height="34.73" fill="#888f7f"/><path d="M 381.98 416.7 A 34.73 34.73 0 0 1 416.71000000000004 451.43 L 381.98 451.43L381.98 416.7" fill="#f5f6e5"/><rect x="347.25" y="451.43" width="34.73" height="34.73" fill="#ecefd0"/><path d="M 347.25 451.43 A 34.73 34.73 0 0 0 381.98 486.16 L 381.98 451.43L347.25 451.43" fill="#e7e1db"/><rect x="381.98" y="451.43" width="34.73" height="34.73" fill="#ded6cf"/><path d="M 381.98 486.16 A 34.73 34.73 0 0 0 416.71000000000004 451.43 L 381.98 451.43L381.98 486.16" fill="#edd9c5"/><rect x="416.7" y="416.7" width="69.45" height="69.45" fill="#fffdf5"/><polygon points="416.7,416.7 486.15,486.15 416.7,486.15" fill="#4e5941"/><rect x="486.15" y="416.7" width="69.45" height="69.45" fill="#ecd5c0"/><polygon points="486.15,416.7 555.6,416.7 486.15,486.15" fill="#afb5aa"/><rect x="555.6" y="416.7" width="69.45" height="69.45" fill="#fefefd"/><polygon points="555.6,416.7 625.0500000000001,416.7 555.6,486.15" fill="#fefae2"/><rect x="625.0500000000001" y="416.70000000000005" width="69.45" height="69.45" fill="#ffffff"/><rect x="625.05" y="416.7" width="34.73" height="34.73" fill="#f2efec"/><polygon points="659.78,416.7 659.78,451.43 625.05,451.43" fill="#f4f6e5"/><rect x="659.78" y="416.7" width="34.73" height="34.73" fill="#f2f4de"/><polygon points="659.78,416.7 694.51,416.7 659.78,451.43" fill="#2a381a"/><rect x="625.05" y="451.43" width="34.73" height="34.73" fill="#f0dfce"/><polygon points="625.05,451.43 659.78,451.43 659.78,486.16" fill="#e8cdb3"/><rect x="659.78" y="451.43" width="34.73" height="34.73" fill="#7b8371"/><polygon points="659.78,451.43 694.51,486.16 659.78,486.16" fill="#f0f3db"/><rect x="694.5" y="416.70000000000005" width="69.45" height="69.45" fill="#ffffff"/><rect x="694.5" y="416.7" width="34.73" height="34.73" fill="#deb893"/><circle cx="711.865" cy="434.065" r="17.365" fill="#fbfcf5"/><rect x="729.23" y="416.7" width="34.73" height="34.73" fill="#f1eeeb"/><rect x="729.23" y="416.7" width="34.73" height="34.73" fill="#f4f6e3"/><rect x="694.5" y="451.43" width="34.73" height="34.73" fill="#d8cec5"/><circle cx="711.865" cy="468.795" r="17.365" fill="#fefced"/><rect x="729.23" y="451.43" width="34.73" height="34.73" fill="#fefae1"/><rect x="729.23" y="451.43" width="34.73" height="34.73" fill="#eeeae6"/><rect x="763.95" y="416.70000000000005" width="69.45" height="69.45" fill="#ffffff"/><rect x="763.95" y="416.7" width="34.73" height="34.73" fill="#fdfcfa"/><path d="M 763.95 416.7 A 34.73 34.73 0 0 1 798.6800000000001 451.43 L 763.95 451.43L763.95 416.7" fill="#f9f3ed"/><rect x="798.68" y="416.7" width="34.73" height="34.73" fill="#f2f4df"/><path d="M 798.68 451.43 A 34.73 34.73 0 0 1  833.41 416.7 L 833.41 451.43L798.68 451.43" fill="#fffef8"/><rect x="763.95" y="451.43" width="34.73" height="34.73" fill="#f2efec"/><path d="M 763.95 486.16 A 34.73 34.73 0 0 0 798.6800000000001 451.43 L 763.95 451.43L763.95 486.16" fill="#b8bdb3"/><rect x="798.68" y="451.43" width="34.73" height="34.73" fill="#e2dbd4"/><path d="M 798.68 451.43 A 34.73 34.73 0 0 0 833.41 486.16 L 833.41 451.43L798.68 451.43" fill="#d8ac81"/><rect x="0" y="486.15000000000003" width="69.45" height="69.45" fill="#ffffff"/><rect x="0" y="486.15" width="34.73" height="34.73" fill="#fefce9"/><circle cx="17.365" cy="503.515" r="17.365" fill="#e1dad2"/><rect x="34.73" y="486.15" width="34.73" height="34.73" fill="#f4f1ee"/><rect x="34.73" y="486.15" width="34.73" height="34.73" fill="#fffdf0"/><rect x="0" y="520.88" width="34.73" height="34.73" fill="#fefcec"/><circle cx="17.365" cy="538.245" r="17.365" fill="#b1b6ab"/><rect x="34.73" y="520.88" width="34.73" height="34.73" fill="#f4f6e5"/><rect x="34.73" y="520.88" width="34.73" height="34.73" fill="#f8faef"/><rect x="69.45" y="486.15000000000003" width="69.45" height="69.45" fill="#ffffff"/><rect x="69.45" y="486.15" width="34.73" height="34.73" fill="#fbfbfa"/><polygon points="104.18,486.15 104.18,520.88 69.45,520.88" fill="#deb995"/><rect x="104.18" y="486.15" width="34.73" height="34.73" fill="#f6f8e9"/><polygon points="104.18,486.15 138.91,520.88 104.18,520.88" fill="#efebe7"/><rect x="69.45" y="520.88" width="34.73" height="34.73" fill="#d6a779"/><polygon points="69.45,520.88 104.18,520.88 69.45,555.61" fill="#f4f6e5"/><rect x="104.18" y="520.88" width="34.73" height="34.73" fill="#ded6ce"/><polygon points="104.18,520.88 138.91,520.88 138.91,555.61" fill="#fbf6f1"/><rect x="138.9" y="486.15000000000003" width="69.45" height="69.45" fill="#ffffff"/><rect x="138.9" y="486.15" width="34.73" height="34.73" fill="#fffdf2"/><path d="M 138.9 520.88 A 34.73 34.73 0 0 1  173.63 486.15 L 173.63 520.88L138.9 520.88" fill="#78806e"/><rect x="173.63" y="486.15" width="34.73" height="34.73" fill="#f0e0cf"/><path d="M 173.63 486.15 A 34.73 34.73 0 0 1 208.35999999999999 520.88 L 173.63 520.88L173.63 486.15" fill="#ead2ba"/><rect x="138.9" y="520.88" width="34.73" height="34.73" fill="#eef1d6"/><path d="M 138.9 520.88 A 34.73 34.73 0 0 0 173.63 555.61 L 173.63 520.88L138.9 520.88" fill="#fffefc"/><rect x="173.63" y="520.88" width="34.73" height="34.73" fill="#edf1d4"/><path d="M 173.63 555.61 A 34.73 34.73 0 0 0 208.35999999999999 520.88 L 173.63 520.88L173.63 555.61" fill="#f7f8eb"/><rect x="208.35000000000002" y="486.15000000000003" width="69.45" height="69.45" fill="#ffffff"/><rect x="208.35" y="486.15" width="34.73" height="34.73" fill="#ebd5bf"/><polygon points="243.07999999999998,486.15 243.07999999999998,520.88 208.35,520.88" fill="#fffdf2"/><rect x="243.08" y="486.15" width="34.73" height="34.73" fill="#313f22"/><polygon points="243.08,486.15 277.81,520.88 243.08,520.88" fill="#fffef6"/><rect x="208.35" y="520.88" width="34.73" height="34.73" fill="#efddcb"/><polygon points="208.35,520.88 243.07999999999998,520.88 208.35,555.61" fill="#fffef9"/><rect x="243.08" y="520.88" width="34.73" height="34.73" fill="#ebd4be"/><polygon points="243.08,520.88 277.81,520.88 277.81,555.61" fill="#efdcca"/><rect x="277.8" y="486.15000000000003" width="69.45" height="69.45" fill="#ffffff"/><rect x="277.8" y="486.15" width="34.73" height="34.73" fill="#f5eadf"/><polygon points="312.53000000000003,486.15 312.53000000000003,520.88 277.8,520.88" fill="#e8e2dd"/><rect x="312.53" y="486.15" width="34.73" height="34.73" fill="#c1c5bc"/><polygon points="312.53,486.15 347.26,486.15 312.53,520.88" fill="#f5f7e6"/><rect x="277.8" y="520.88" width="34.73" height="34.73" fill="#f5f7e6"/><polygon points="277.8,520.88 312.53000000000003,520.88 312.53000000000003,555.61" fill="#e8ceb4"/><rect x="312.53" y="520.88" width="34.73" height="34.73" fill="#fbfaf9"/><polygon points="312.53,520.88 347.26,555.61 312.53,555.61" fill="#fefae2"/><rect x="347.25" y="486.15" width="69.45" height="69.45" fill="#f6f3f1"/><rect x="347.25" y="486.15" width="69.45" height="69.45" fill="#f8f9ee"/><rect x="416.70000000000005" y="486.15000000000003" width="69.45" height="69.45" fill="#ffffff"/><rect x="416.7" y="486.15" width="34.73" height="34.73" fill="#e6caaf"/><path d="M 416.7 486.15 A 34.73 34.73 0 0 0 451.43 520.88 L 451.43 486.15L416.7 486.15" fill="#ddb58f"/><rect x="451.43" y="486.15" width="34.73" height="34.73" fill="#eaeecc"/><path d="M 451.43 520.88 A 34.73 34.73 0 0 0 486.16 486.15 L 451.43 486.15L451.43 520.88" fill="#fefefd"/><rect x="416.7" y="520.88" width="34.73" height="34.73" fill="#e2c2a2"/><path d="M 416.7 555.61 A 34.73 34.73 0 0 1  451.43 520.88 L 451.43 555.61L416.7 555.61" fill="#f2f5e0"/><rect x="451.43" y="520.88" width="34.73" height="34.73" fill="#fefced"/><path d="M 451.43 520.88 A 34.73 34.73 0 0 1 486.16 555.61 L 451.43 555.61L451.43 520.88" fill="#323f23"/><rect x="486.15" y="486.15" width="69.45" height="69.45" fill="#f3e5d7"/><polygon points="486.15,486.15 555.6,486.15 486.15,555.6" fill="#dfd8d0"/><rect x="555.6" y="486.15" width="69.45" height="69.45" fill="#edd8c3"/><rect x="555.6" y="486.15" width="69.45" height="69.45" fill="#f2eeeb"/><rect x="625.0500000000001" y="486.15000000000003" width="69.45" height="69.45" fill="#ffffff"/><rect x="625.05" y="486.15" width="34.73" height="34.73" fill="#ebeecd"/><circle cx="642.415" cy="503.515" r="17.365" fill="#fffefb"/><rect x="659.78" y="486.15" width="34.73" height="34.73" fill="#fffef6"/><rect x="659.78" y="486.15" width="34.73" height="34.73" fill="#fefbe8"/><rect x="625.05" y="520.88" width="34.73" height="34.73" fill="#f5f2f0"/><circle cx="642.415" cy="538.245" r="17.365" fill="#fefae0"/><rect x="659.78" y="520.88" width="34.73" height="34.73" fill="#eef1d5"/><rect x="659.78" y="520.88" width="34.73" height="34.73" fill="#e3e5e1"/><rect x="694.5" y="486.15000000000003" width="69.45" height="69.45" fill="#ffffff"/><rect x="694.5" y="486.15" width="34.73" height="34.73" fill="#fcfdf8"/><path d="M 694.5 486.15 A 34.73 34.73 0 0 1 729.23 520.88 L 694.5 520.88L694.5 486.15" fill="#f1f4dd"/><rect x="729.23" y="486.15" width="34.73" height="34.73" fill="#fffefc"/><path d="M 729.23 520.88 A 34.73 34.73 0 0 1  763.96 486.15 L 763.96 520.88L729.23 520.88" fill="#f6f8e9"/><rect x="694.5" y="520.88" width="34.73" height="34.73" fill="#eff2d9"/><path d="M 694.5 555.61 A 34.73 34.73 0 0 0 729.23 520.88 L 694.5 520.88L694.5 555.61" fill="#edf0d3"/><rect x="729.23" y="520.88" width="34.73" height="34.73" fill="#505b43"/><path d="M 729.23 520.88 A 34.73 34.73 0 0 0 763.96 555.61 L 763.96 520.88L729.23 520.88" fill="#e2dad3"/><rect x="763.95" y="486.15" width="69.45" height="69.45" fill="#e7e9e6"/><path d="M 763.95 555.6 A 69.45 69.45 0 0 0 833.4000000000001 486.15 L 763.95 486.15L763.95 555.6" fill="#f8efe7"/></g></svg>